<?xml version="1.0" standalone="no"?>
<!DOCTYPE svg PUBLIC "-//W3C//DTD SVG 20010904//EN"
 "http://www.w3.org/TR/2001/REC-SVG-20010904/DTD/svg10.dtd">
<svg version="1.0" xmlns="http://www.w3.org/2000/svg"
 width="700.000000pt" height="700.000000pt" viewBox="0 0 700.000000 700.000000"
 preserveAspectRatio="xMidYMid meet">
<metadata>
Created by potrace 1.14, written by Peter Selinger 2001-2017
</metadata>
<g transform="translate(0.000000,700.000000) scale(0.100000,-0.100000)"
fill="#000000" stroke="none">
<path d="M0 3500 l0 -2916 2915 0 c2074 -1 2915 3 2916 10 3 33 4 2814 1 2827
-3 12 -23 -3 -74 -55 -38 -39 -167 -170 -287 -291 l-216 -219 -5 -845 -5 -845
-2327 0 c-1544 -1 -2329 2 -2331 9 -2 6 -3 1056 -3 2334 l1 2325 2089 0 2088
1 279 285 c153 157 279 288 279 291 0 3 -1197 5 -2660 5 l-2660 0 0 -2916z"/>
<path d="M6035 6305 c-33 -35 -199 -206 -370 -380 -170 -174 -357 -365 -414
-423 -106 -110 -232 -240 -800 -821 -626 -642 -719 -737 -908 -930 l-190 -195
-98 95 c-54 52 -110 105 -125 119 -15 14 -96 90 -180 170 -84 80 -170 161
-190 180 -69 65 -363 344 -454 431 -177 168 -231 219 -236 219 -3 0 -207 -202
-454 -449 l-449 -449 79 -77 c107 -103 578 -561 678 -659 45 -43 184 -178 310
-300 126 -121 270 -261 321 -311 154 -150 593 -576 700 -679 l100 -96 180 184
c99 101 360 367 580 591 220 224 463 471 540 550 77 79 318 324 535 546 217
221 442 450 500 509 58 59 303 309 545 555 475 484 532 542 672 686 l92 95
-452 451 -452 452 -60 -64z"/>
</g>
</svg>
